#!OML:ASF I:\Random Stuff\random\construction\7_22_03\Session 2\subj1.ASF
:FULLY-SPECIFIED
:DEGREES
2526
root 4.72082 17.7421 -8.03201 22.083 -36.9261 -8.08346
lowerback 14.2794 -1.64174 -4.09198
upperback 4.82728 -3.04726 -5.22099
thorax -2.97509 -1.54372 -2.66441
lowerneck -26.7171 0.144286 -4.82975
upperneck 35.6235 0.196235 5.02499
head 17.6573 0.0486177 3.16329
rclavicle 2.54444e-014 2.54444e-014
rhumerus -49.8283 29.3939 -65.9774
rradius 120.397
rwrist -39.7341
rhand -20.2376 15.2892
rfingers 7.12502
rthumb 6.11044 -14.6027
lclavicle 2.54444e-014 2.54444e-014
lhumerus -2.05024 -45.6113 79.6028
lradius 49.0583
lwrist 375.033
lhand -24.7454 59.9861
lfingers 7.12502
lthumb -178.243 2429.96
rfemur -19.6913 6.86079 24.4308
rtibia 3.83182
rfoot -4.25314 8.02732
rtoes -21.6487
lfemur -31.6047 2.4379 -7.09843
ltibia 29.3147
lfoot -12.7254 10.9766
ltoes -28.9512
2527
root 4.72145 17.7432 -8.03133 22.0397 -37.3129 -8.02078
lowerback 14.203 -1.74435 -4.08137
upperback 4.77399 -3.17004 -5.0812
thorax -2.98506 -1.60362 -2.50366
lowerneck -26.7274 0.390528 -4.41555
upperneck 35.5488 0.530842 4.62467
head 17.5962 0.180462 2.97503
rclavicle -7.95139e-014 4.45278e-014
rhumerus -49.8203 29.5368 -66.087
rradius 120.365
rwrist -39.335
rhand -20.0474 15.3425
rfingers 7.12502
rthumb 6.29409 -14.544
lclavicle -7.95139e-014 4.45278e-014
lhumerus -2.26306 -44.7902 79.9075
lradius 46.6325
lwrist 377.557
lhand -23.9174 60.3178
lfingers 7.12502
lthumb -177.443 2609.72
rfemur -19.8989 7.19497 24.2601
rtibia 4.2309
rfoot -4.45744 7.90462
rtoes -22.5352
lfemur -31.3932 2.61548 -7.24499
ltibia 29.1707
lfoot -12.6655 11.1388
ltoes -29.2537
2528
root 4.72183 17.749 -8.02969 21.9981 -37.7298 -7.90801
lowerback 14.1068 -1.85354 -4.06755
upperback 4.75085 -3.30069 -4.98505
thorax -2.95484 -1.66831 -2.39111
lowerneck -26.9114 0.669098 -3.89411
upperneck 35.5093 0.888364 4.17934
head 17.6009 0.329249 2.75855
rclavicle -2.38542e-014 -1.59028e-014
rhumerus -49.6408 29.6317 -66.1321
rradius 120.304
rwrist -38.8822
rhand -19.714 15.3872
rfingers 7.12502
rthumb 6.61595 -14.4895
lclavicle -2.38542e-014 -1.59028e-014
lhumerus -2.67068 -44.1723 80.1103
lradius 44.7821
lwrist 380.752
lhand -23.7979 60.9849
lfingers 7.12502
lthumb -177.327 2609.05
rfemur -20.0955 7.53436 24.011
rtibia 4.45849
rfoot -4.45967 7.91675
rtoes -22.1915
lfemur -31.2034 2.73503 -7.42904
ltibia 29.0368
lfoot -12.6049 11.3511
ltoes -29.2784
2529
root 4.7227 17.7525 -8.02749 21.9406 -38.1677 -7.78154
lowerback 14.0618 -1.95334 -4.0612
upperback 4.69789 -3.42537 -4.88544
thorax -2.98251 -1.72907 -2.26977
lowerneck -27.1788 0.957177 -3.6037
upperneck 35.6264 1.23247 4.0649
head 17.7104 0.485387 2.74071
rclavicle 7.79236e-014 0
rhumerus -49.5479 29.804 -66.229
rradius 120.311
rwrist -38.7297
rhand -19.5783 15.5674
rfingers 7.12502
rthumb 6.74694 -14.3051
lclavicle 7.79236e-014 0
lhumerus -3.38282 -43.2767 80.4847
lradius 43.3506
lwrist 383.023
lhand -23.5438 61.6857
lfingers 7.12502
lthumb -177.082 2608.35
rfemur -20.2523 7.88129 23.7263
rtibia 4.57979
rfoot -4.37197 7.96373
rtoes -21.3774
lfemur -30.9905 2.71313 -7.58425
ltibia 28.8964
lfoot -12.5701 11.6477
ltoes -28.7945
2530
root 4.7239 17.7544 -8.02435 21.898 -38.5811 -7.67655
lowerback 13.9834 -2.07663 -3.95161
upperback 4.65387 -3.56642 -4.82842
thorax -2.99155 -1.79809 -2.24991
lowerneck -27.5223 1.22846 -3.44827
upperneck 35.9202 1.49519 4.2325
head 17.9376 0.626983 2.86924
rclavicle 3.65764e-014 -3.18055e-015
rhumerus -49.5449 30.0307 -66.4644
rradius 120.375
rwrist -38.8416
rhand -19.5391 15.6776
rfingers 7.12502
rthumb 6.78471 -14.1937
lclavicle 3.65764e-014 -3.18055e-015
lhumerus -4.21468 -41.899 80.8359
lradius 42.0702
lwrist 383.661
lhand -22.8251 61.8446
lfingers 7.12502
lthumb -176.388 2608.21
rfemur -20.3985 8.21484 23.4733
rtibia 4.69737
rfoot -4.33111 7.95253
rtoes -21.2606
lfemur -30.7977 2.66997 -7.71374
ltibia 28.7723
lfoot -12.5578 11.9987
ltoes -28.8337
2531
root 4.72478 17.7587 -8.0217 21.9053 -39.0413 -7.60882
lowerback 13.8768 -2.17963 -3.68376
upperback 4.60248 -3.66614 -4.90144
thorax -3.01155 -1.84688 -2.46313
lowerneck -27.8329 1.46956 -3.24173
upperneck 36.2241 1.59212 4.60911
head 18.1739 0.741547 3.05238
rclavicle -5.24792e-014 4.13472e-014
rhumerus -49.7348 30.0959 -66.9615
rradius 120.442
rwrist -38.7086
rhand -19.5757 15.8625
rfingers 7.12502
rthumb 6.74942 -14.01
lclavicle -5.24792e-014 4.13472e-014
lhumerus -5.02996 -41.0257 80.8886
lradius 41.1194
lwrist 384.313
lhand -22.6417 61.7499
lfingers 7.12502
lthumb -176.211 2608.3
rfemur -20.579 8.60886 23.238
rtibia 4.87062
rfoot -4.34063 7.93515
rtoes -21.348
lfemur -30.6485 2.78787 -7.8588
ltibia 28.6988
lfoot -12.5859 12.2732
ltoes -28.9725
2532
root 4.7242 17.7614 -8.02085 21.9238 -39.5391 -7.53259
lowerback 13.811 -2.20095 -3.53131
upperback 4.50277 -3.67674 -4.91949
thorax -3.09213 -1.8509 -2.56585
lowerneck -27.8825 1.66194 -2.95304
upperneck 36.2486 1.64695 4.80703
head 18.1977 0.833204 3.10968
rclavicle -3.97569e-014 -3.18055e-015
rhumerus -50.0856 30.0392 -67.3709
rradius 120.54
rwrist -38.4647
rhand -19.7631 16.0852
rfingers 7.12502
rthumb 6.56848 -13.7929
lclavicle -3.97569e-014 -3.18055e-015
lhumerus -5.84609 -40.5726 81.0102
lradius 40.5025
lwrist 385.325
lhand -22.5561 61.3436
lfingers 7.12502
lthumb -176.128 2608.71
rfemur -20.799 9.04541 22.9771
rtibia 5.07281
rfoot -4.36308 7.92149
rtoes -21.3657
lfemur -30.5366 3.06115 -8.04848
ltibia 28.6597
lfoot -12.6196 12.4167
ltoes -28.6703
